<?xml version="1.0" encoding="UTF-8"?>
<svg id="Layer_2" data-name="Layer 2" xmlns="http://www.w3.org/2000/svg" viewBox="0 0 65.45 65.45">
  <defs>
    <style>
      .cls-1 {
        fill: #1a4f84;
      }

      .cls-2 {
        fill: #d5e491;
      }
    </style>
  </defs>
  <g id="Layer_1-2" data-name="Layer 1">
    <g>
      <path class="cls-1" d="M65.45,32.73c0,18.08-14.66,32.72-32.73,32.72S0,50.8,0,32.73,14.64,0,32.72,0s32.73,14.66,32.73,32.73h0Z"/>
      <path class="cls-2" d="M26.93,54.12v-20.42h-5.41v-7.34h5.41v-6.28c0-4.93,3.19-9.46,10.53-9.46,2.99,0,5.18,.29,5.18,.29l-.16,6.87s-2.26-.03-4.7-.03c-2.66,0-3.08,1.24-3.08,3.26,0,1.59,0-3.42,0,5.37h7.97l-.33,7.34h-7.64v20.42h-7.77Z"/>
    </g>
  </g>
</svg>