<?xml version="1.0" encoding="UTF-8"?>
<svg id="Layer_2" data-name="Layer 2" xmlns="http://www.w3.org/2000/svg" viewBox="0 0 74.91 90.43">
  <defs>
    <style>
      .cls-1 {
        fill: #c1e8fb;
      }
    </style>
  </defs>
  <g id="OBJECTS">
    <g>
      <path class="cls-1" d="M56.95,.9c-.14,.36-.2,.95-.52,1.27-.47,.48-.08,1.14-.57,1.64-.47,.1-1.01,.24-1.56,.33-.09,.01-.22-.21-.32-.33,.24-.28,.43-.5,.62-.71-.29-.38-.65-.39-1.13-.31-.22,.28-.49,.61-.73,.9,.09,.44,.17,.8,.22,1.05-.44,.82-1.28,.98-1.8,1.52-.61,.63-1.6,.41-2.23,1.12-.17,.39-.38,.84-.57,1.26-.41,.46-.79,.87-1.01,1.12-.67,.2-1.09,.32-1.41,.41-.77,.84-.33,1.79-.61,2.84-.26,.68-.78,1.45-1.37,2.2-.61,.78-1.05,1.7-1.47,2.41-.49,1.14-.91,2.12-1.4,3.26-.02,.18-.05,.55-.08,.92-.42,.23-.8,.44-1.18,.66-.42,1.55-.82,3.07-1.24,4.58-.08,.3-.14,.64-.31,.89-.41,.59-.52,1.27-.68,1.94-.3,1.22-.63,2.44-1.31,3.53-.13,.2-.32,.36-.51,.56-.21-.15-.42-.22-.48-.36-.19-.46-.33-.95-.49-1.43-.41-1.25-.69-2.58-1.27-3.74-.84-1.69-1.6-3.41-2.21-5.2-.08-.24-.2-.46-.3-.69-.39-.86-.79-1.72-1.16-2.58-.59-1.4-1.09-2.83-1.2-4.35-.11-1.48-.71-2.65-1.83-3.59-.77-.65-1.4-1.42-1.99-2.25-.88-1.22-1.69-2.49-2.62-3.69-.77-.99-1.62-1.73-2.74-2.16-.59-.06-1.15-.11-1.67-.16-.5-.47-.95-.9-1.32-1.24-.6-.28-1.1-.24-1.6-.22-.5,.02-1,0-1.45,0-.31-.25-.55-.45-.79-.65-.76-.62-1.63-.83-2.62-.88-1.7-.09-3.21,.46-4.74,1.11-.2,.54-.4,1.07-.56,1.49-.67,.64-1.26,1.21-1.75,1.68-.28,.8-.58,1.43-.71,2.11-.24,1.25-.69,2.42-1.2,3.57-.31,.71-.48,1.43-.33,2.25,.17,.35,.36,.75,.59,1.25-.34,.56,.13,1.3-.3,1.91-.31,.11-.6,.21-.92,.32-.29,1.03-.1,1.99,.32,2.87,.31,.38,.59,.72,.83,1.02,.33,1.63,.34,3.18-.14,4.59,.05,.78,.39,1.33,.63,1.91,.26,.64,.51,1.29,.73,1.94,.06,.17,0,.37,0,.64-.18,.32-.4,.69-.6,1.02,.02,.42-.08,.83,.4,.99,.22-.1,.43-.2,.63-.29,.45,.28,.55,.71,.63,1v1.82c.47,.69,1.02,1.32,1.37,2.05,.59,1.24,1.43,2.39,1.53,3.83,.01,.18,.15,.35,.21,.52,.29,.83,.58,1.66,.79,2.27-.13,1.03-.3,1.84-.32,2.64-.02,1.18,.68,1.98,1.57,2.65,.37,.06,.74,.12,1.05,.17,.73,.47,1.04,1.17,1.34,1.87,.57,1.34,1.24,2.61,2.02,3.84,.34,.53,.64,1.08,.92,1.65,.13,.27,.16,.6,.23,.9l.02,.08-.02-.14c.81,.73,1.3,1.69,1.82,2.62,.52,.93,.93,1.94,1.55,2.8,.68,.95,1.09,1.98,1.35,3.08,.12,.5,.26,.97,.62,1.46,.35,.21,.78,.46,1.21,.71,.14,.36,.21,.75,.41,1.05,.71,1.1,1.18,2.35,2.02,3.38,.23,.28,.32,.68,.46,1.03,.04,.11,.02,.25,.03,.32-.13,.32-.24,.6-.36,.91,.48,.5,.91,.95,1.38,1.43,.2,.49,.41,1.01,.62,1.5,.81,.84,1.44,1.82,2.54,2.27,1.54,1.3,3.13,2.54,4.35,4.28,.12,1.15,.78,2.15,1.36,3.26,.44,.17,.91,.35,1.4,.54,.34,.32,.71,.66,1.11,1.02,1.47,.26,2.95,.53,4.43,.8,.97,.44,1.94,.89,2.92,1.33,.83,.37,1.69,.45,2.61,.18,.66-.63,1.34-1.28,1.96-1.87,.64-.2,1.19-.3,1.74-.03,.09,.25,.15,.5,.27,.71,.16,.28,.4,.48,.75,.45,.86-.43,.68-1.45,1.25-2.18,1.15-.37,1.88-1.45,2.87-2.15,.17-.61,.32-1.15,.48-1.72,.6-.86,1.24-1.73,1.27-2.77,.51-.68,.96-1.28,1.42-1.88-.03-1.76,.31-3.39,1.11-4.94,.25-.49,.32-1.08,.42-1.64,.04-.23-.05-.48-.11-.88-1.07,.52-.86,1.56-1.29,2.36-.08,.11-.22,.33-.39,.51-.22,.22-.47,.4-.69,.58h-1.03c-.32,.69-.64,1.37-.95,2.04-.66,.49-1.31,.97-1.85,1.38-.54,0-.73-.27-.75-.59-.02-.37,.04-.75,.09-1.12,.09-.61,.21-1.21,.02-1.86-.61,.2-.5,1.12-1.22,1.06q-.57-.6-.49-1.91c.85-1.09,1.12-2.57,2.05-3.71,.18-.22,.23-.58,.27-.89,.03-.23-.06-.47-.09-.63-.35-.23-.61-.16-.75,.05-.3,.47-.55,.97-.85,1.5-.27,.11-.56,.24-.85,.34-.33,.12-.61,.04-.86-.35-.14-.72-.23-1.51,.02-2.27,.37-.13,.53,.1,.71,.26,.25,.22,.52,.35,.84,.19,.9-1.32,1.49-2.76,1.81-4.29,.49-.71,.9-1.42,1.43-2.04,.63-.73,1.02-1.58,1.4-2.44,.07-.16,0-.37,0-.63-.26-.21-.55-.44-.83-.67-.03-.42-.06-.78-.09-1.14,1.01-.31,1.63-.99,2.13-1.93,.89-1.66,1.38-3.52,2.56-5.03,.15-.19,.16-.47,.25-.71,.11-.29,.24-.57,.32-.75,.37-.26,.64-.42,.99-.21,.35,.57,.71,1.15,1.05,1.7,.22,1.13-.38,2.11-.51,3.21,.29,.46,.58,.93,.87,1.38-.26,.97-.59,1.87-.45,2.84,.16,1.14-.21,2.11-.86,3-.15,.2-.28,.42-.41,.62-.13,.63-.25,1.24-.37,1.8-.5,.57-.95,1.09-1.37,1.57-.07,.44-.13,.81-.19,1.17-.36,.53-.71,1.04-1.02,1.49q.05,1.04,.48,1.66c1.09-1.07,1.95-2.24,2.33-3.76,.18-.71,.27-1.51,.96-2.17,.16-.05,.45-.13,.56-.16,.62,.12,.86,.66,1.49,.48,.21-.25,.49-.58,.74-.88,.08-.62,.16-1.18,.24-1.77,.59-.95,1.01-1.98,1.31-3.09,.38-1.39,.89-2.75,1.59-4.03,.64-1.17,.99-2.44,1.3-3.73,.18-.73,.37-1.47,.66-2.16,.4-.95,.56-1.93,.66-2.93,.05-.5-.02-1.06,.18-1.49,.65-1.45,.47-3.13,1.31-4.51,.51-2.58,1.67-5.02,1.77-7.7,0-.24,.12-.49,.18-.73,.64-2.45,1.01-4.92,.92-7.46-.08-2.14-.15-4.28-.16-6.42,0-1.66-.17-3.27-1.03-4.52-.16-1-.3-1.8-.43-2.63-.96-.81-1.43-1.91-1.86-3.03-.04-.12-.09-.24-.13-.35-.29-.73-.79-1.27-1.46-1.67-.59-.35-1.18-.72-1.84-1.12h-1.85c-.48,.18-.83,.32-1.2,.46-.3-.17-.61-.27-.82-.49-.25-.27-.41-.63-.63-.93-.06-.08-.21-.1-.32-.15-.44,.05-.68,.6-1.24,.44-.57-.29-.66-1-1.08-1.46-.43-.47-.86-.93-1.72-.98-.61,.19-1.47,.16-2.18,.9Zm-6.72,61.96s.06,.11,.05,.12c-.11,.09-.17,.06-.18-.09,.04-.01,.1-.05,.13-.03Zm14.06-2.02c-.36-.22-.33-.44-.12-.65,.54,.13,.15,.44,.12,.65Zm-13.55-39.49c.4,.11,.2,.33-.03,.49,.01-.16,.02-.32,.03-.49Zm18.08,27.39c.07,.89-.39,1.53-1.11,2.2-.19-.26-.31-.35-.32-.45-.05-.76,.2-1.47,.44-2.24,.21-.07,.42-.14,.72-.24,.11,.3,.25,.51,.27,.74Zm-9.71-2.65c.13,.81,.14,1.62-.17,2.41-.25,.64-.48,1.29-.69,1.86-.4,.57-.97,.69-1.53,.83-.14,.24-.29,.44-.39,.66-.57,1.21-1.12,3.77-1.16,5.28,0,0,0,0,0,0-.37,.63-.73,1.26-1.3,1.75-.27,.24-.45,.59-.68,.89-.27,.34-.54,.67-.86,1.06-.26-.12-.46-.21-.61-.27-.03-.17-.06-.24-.05-.29,.19-.6,.33-1.22,.58-1.78,.32-.7,.53-1.41,.67-2.15,.2-1.08,.75-1.99,1.35-2.76,.44-1.12,.41-2.18,.21-3.25,.27-.59,.54-1.15,.8-1.72,.57-.31,1.04-.7,1.14-1.21,.53-.38,.96-.64,1.33-.97,.32-.28,.5-.73,1.03-.78,.11,.15,.28,.29,.31,.45Zm-47.43-4.1c.26,.9,.62,1.78,.93,2.67,.08,.23,.2,.47-.03,.76-.13-.09-.35-.17-.37-.28-.18-1.08-.68-2.01-1.23-2.94-.31-.54-.49-1.16-.73-1.74-.43-1.05-.85-2.09-1.44-3.54-.35-2.23-1.01-4.84-2.27-7.57,0-.28,.02-.85,0-1.41-.02-.5-.1-1-.16-1.5-.07-.54-.26-1.08-.14-1.63,.43,.03,.48,.31,.54,.54,.62,2.31,1.22,4.62,1.83,6.93,.14,.55,.21,1.12,.43,1.64,1.1,2.62,1.86,5.34,2.63,8.07Zm23.02-5.15c-.36-.98-.71-1.97-1.03-2.97-.04-.12,.1-.3,.3-.86,.51,1.57,.87,2.68,1.1,3.87-.19-.02-.36,0-.37-.04Zm22.44-16.89c.07,2.65-.05,5.27-.87,7.82-.38,1.19-.87,2.36-1.01,3.6,.07,.39,.14,.76,.22,1.21-.35,.62-.11,1.54-.82,2.14-.84-.61-.57-1.55-.85-2.29-.26-.68-.26-1.48-.34-2.22-.09-.81-.13-1.62-.19-2.43-.18-.28-.34-.55-.53-.8-.61-.8-.62-1.61-.08-2.44,.14-.21,.28-.41,.43-.63,.21-.12,.43-.25,.64-.38,.05-.03,.09-.08,.32-.3,.33-.69,.76-1.59,1.27-2.66,.34-.36,.73-.94,1.3-1.2,.42,.07,.49,.34,.5,.58Z"/>
      <path class="cls-1" d="M54.23,89.31c.11,.08,.25,.17,.47,.32q.88-1.02,1.23-2.11c-1.33,.85-1.71,1.24-1.7,1.79Z"/>
      <path class="cls-1" d="M54.72,1.35q-.28-.49-.89-.16c.37,.41,.62,.48,.89,.16Z"/>
      <polygon class="cls-1" points="11.68 52.92 11.76 53.04 11.82 52.92 11.68 52.92"/>
    </g>
  </g>
</svg>