<?xml version="1.0" encoding="UTF-8"?>
<svg id="Layer_2" data-name="Layer 2" xmlns="http://www.w3.org/2000/svg" viewBox="0 0 65.45 65.45">
  <defs>
    <style>
      .cls-1 {
        fill: #1a4f84;
      }

      .cls-2 {
        fill: #d5e491;
      }
    </style>
  </defs>
  <g id="Layer_1-2" data-name="Layer 1">
    <g>
      <path class="cls-1" d="M65.45,32.71c0,18.08-14.66,32.74-32.72,32.74S0,50.79,0,32.71,14.65,0,32.73,0s32.72,14.65,32.72,32.71h0Z"/>
      <path class="cls-2" d="M48.63,41.47c0,4.03-3.25,7.31-7.24,7.31H24.06c-4,0-7.24-3.28-7.24-7.31V23.98c0-4.03,3.24-7.31,7.24-7.31h17.33c3.99,0,7.24,3.28,7.24,7.31v17.48h0Zm-7.24-28.25H24.06c-5.88,0-10.67,4.83-10.67,10.77v17.48c0,5.94,4.79,10.77,10.67,10.77h17.33c5.88,0,10.67-4.83,10.67-10.77V23.98c0-5.94-4.79-10.77-10.67-10.77h0Z"/>
      <path class="cls-2" d="M32.73,39.32c-3.6,0-6.54-2.96-6.54-6.59s2.93-6.59,6.54-6.59,6.53,2.96,6.53,6.59-2.93,6.59-6.53,6.59h0Zm0-16.65c-5.49,0-9.97,4.51-9.97,10.06s4.47,10.06,9.97,10.06,9.97-4.51,9.97-10.06-4.47-10.06-9.97-10.06h0Z"/>
      <path class="cls-2" d="M43.11,19.73c-.66,0-1.31,.27-1.78,.74-.47,.47-.74,1.13-.74,1.8s.27,1.32,.74,1.8c.47,.47,1.12,.74,1.78,.74s1.31-.28,1.78-.74c.47-.48,.74-1.13,.74-1.8s-.27-1.33-.74-1.8c-.47-.48-1.12-.74-1.78-.74h0Z"/>
    </g>
  </g>
</svg>