<?xml version="1.0" encoding="UTF-8"?>
<svg id="Layer_2" data-name="Layer 2" xmlns="http://www.w3.org/2000/svg" viewBox="0 0 253.56 118.91">
  <defs>
    <style>
      .cls-1 {
        fill: #fff;
      }
    </style>
  </defs>
  <g id="Layer_1-2" data-name="Layer 1">
    <g>
      <path class="cls-1" d="M127.82,11.69h-6.46V28.13h-2.25V11.69h-6.46v-2.11h15.17v2.11Z"/>
      <path class="cls-1" d="M143.08,19.14v8.99h-2.25v-8.2c0-3.12-1.52-4.16-3.46-4.16-2.05,0-4.35,1.32-4.35,4.92v7.44h-2.25V7.62h2.25v8.57c.98-1.69,2.67-2.39,4.58-2.39,3.01,0,5.48,1.71,5.48,5.34Z"/>
      <path class="cls-1" d="M160.11,21.95h-10.59c.28,2.84,1.99,4.49,4.58,4.49,2.05,0,3.46-.73,3.96-2.08l1.88,.98c-1.07,1.91-2.81,3.06-5.84,3.06-4.24,0-6.8-2.75-6.8-7.3s2.39-7.3,6.63-7.3,6.29,2.95,6.29,6.57c0,.65-.06,1.18-.11,1.57Zm-10.56-1.99h8.51c-.31-2.58-1.74-4.19-4.13-4.19s-4.04,1.54-4.38,4.19Z"/>
      <path class="cls-1" d="M158.37,45.89c0,3.49-2.5,5.65-6.24,5.65h-4.3v7.25h-2.25v-18.55h6.55c3.74,0,6.24,2.16,6.24,5.65Zm-2.36,0c0-2.3-1.29-3.54-4.22-3.54h-3.96v7.08h3.96c2.92,0,4.22-1.24,4.22-3.54Z"/>
      <path class="cls-1" d="M173.99,52.6h-10.6c.28,2.84,2,4.5,4.58,4.5,2.05,0,3.46-.73,3.96-2.08l1.88,.98c-1.07,1.91-2.81,3.06-5.85,3.06-4.24,0-6.8-2.75-6.8-7.31s2.39-7.31,6.63-7.31,6.3,2.95,6.3,6.58c0,.65-.06,1.18-.11,1.57Zm-10.57-2h8.52c-.31-2.59-1.74-4.19-4.13-4.19s-4.05,1.55-4.38,4.19Z"/>
      <path class="cls-1" d="M191.11,51.76c0,4.55-2.56,7.31-6.8,7.31s-6.8-2.75-6.8-7.31,2.56-7.31,6.8-7.31,6.8,2.75,6.8,7.31Zm-11.36,0c0,3.34,1.71,5.37,4.55,5.37s4.55-2.02,4.55-5.37-1.71-5.37-4.55-5.37-4.55,2.02-4.55,5.37Z"/>
      <path class="cls-1" d="M208.79,51.76c0,4.58-2.5,7.31-6.41,7.31-2.11,0-3.79-1.01-4.67-2.47v8.09h-2.25v-19.96h1.97l.14,2.45c.82-1.6,2.59-2.73,4.81-2.73,3.91,0,6.41,2.73,6.41,7.31Zm-2.25,0c0-3.26-1.66-5.34-4.41-5.34s-4.41,2-4.41,5.17v.34c0,3.18,1.74,5.17,4.41,5.17s4.41-2.08,4.41-5.34Z"/>
      <path class="cls-1" d="M215.31,55.02c0,1.43,.37,1.88,1.52,1.88,.76,0,1.24-.08,2.05-.39l-.37,2.16c-.59,.25-1.35,.39-2.08,.39-2.28,0-3.37-1.21-3.37-3.77v-17.03h2.25v16.75Z"/>
      <path class="cls-1" d="M233.72,52.6h-10.6c.28,2.84,2,4.5,4.58,4.5,2.05,0,3.46-.73,3.96-2.08l1.88,.98c-1.07,1.91-2.81,3.06-5.85,3.06-4.24,0-6.8-2.75-6.8-7.31s2.39-7.31,6.63-7.31,6.3,2.95,6.3,6.58c0,.65-.06,1.18-.11,1.57Zm-10.57-2h8.52c-.31-2.59-1.74-4.19-4.13-4.19s-4.05,1.55-4.38,4.19Z"/>
      <path class="cls-1" d="M240.24,41.84c0,1.88-.93,3.74-3.06,4.75l-1.18-1.1c1.52-.51,2.5-1.69,2.75-2.87l-.11-.06c-.14,.11-.34,.2-.79,.2-.67,0-1.55-.56-1.55-1.77,0-1.01,.81-1.88,1.83-1.88,1.32,0,2.11,1.12,2.11,2.73Z"/>
      <path class="cls-1" d="M241.64,55.89l1.83-1.26c.67,1.71,2.42,2.47,4.44,2.47,2.3,0,3.4-.93,3.4-2.08,0-1.04-.87-1.66-3.68-2.16-3.99-.73-5.45-1.83-5.45-4.19s2.11-4.22,5.54-4.22c3.01,0,4.78,1.07,5.57,3.37l-1.91,1.12c-.62-1.85-1.88-2.53-3.65-2.53-1.88,0-3.29,1.01-3.29,2.05,0,1.21,.93,1.83,3.79,2.3,3.94,.65,5.34,1.83,5.34,4.13,0,2.45-2.28,4.16-5.88,4.16-2.58,0-4.97-1.01-6.04-3.18Z"/>
    </g>
    <g>
      <path class="cls-1" d="M103.92,40.16h17.55l23.45,60.32c1.27,3.21,2.4,5.19,3.39,5.94,.99,.75,2.81,1.1,5.46,1.06v10.81h-36.97v-10.81l2.24-.06c2.05,0,3.49-.27,4.31-.81,.82-.54,1.23-1.2,1.23-1.99,0-.67-.36-2.05-1.06-4.15l-2.33-7.11h-23.76l-2.93,7.9c-.6,1.68-.9,2.78-.9,3.3,0,.6,.21,1.14,.64,1.62,.43,.49,1.13,.84,2.1,1.06,.63,.15,2.39,.22,5.26,.22v10.81h-30.25v-10.81c1.94,0,3.36-.17,4.25-.5,.9-.34,1.63-.84,2.21-1.51,.58-.67,1.22-1.92,1.93-3.75l24.14-61.56Zm-2.34,42.06h15.52l-7.56-21.46-7.96,21.46Z"/>
      <path class="cls-1" d="M176.25,78.77v5.61c2.07-2.17,3.86-3.64,5.37-4.43,1.51-.79,2.97-1.18,4.36-1.18,1.27,0,2.4,.29,3.39,.87,1,.58,1.78,1.41,2.37,2.49,.58,1.08,.87,2.24,.87,3.48,0,1.62-.54,3.09-1.61,4.41-1.07,1.31-2.58,1.97-4.52,1.97-.52,0-.98-.04-1.38-.12-.4-.08-1.25-.33-2.54-.77-.67-.21-1.23-.31-1.67-.31-.67,0-1.78,.43-3.33,1.28v15.12c0,1.29,.1,2.13,.29,2.51,.19,.39,.51,.67,.95,.85,.44,.18,1.39,.27,2.86,.27h1.7v7.46h-23.86v-7.46h1.99c1.43,0,2.32-.08,2.67-.23,.35-.15,.62-.43,.8-.81s.27-1.25,.27-2.59v-17.75h-5.72v-7.43c4.2-.26,8.57-1.34,13.11-3.25h3.64Z"/>
      <path class="cls-1" d="M214.54,66.43v13.27h12.45v8.24h-12.45v13.46c0,3.04,.16,5,.48,5.86,.32,.86,.92,1.55,1.8,2.07,1.16,.7,2.49,1.04,3.98,1.04,2.66,0,5.3-.86,7.93-2.59v8.28c-2.24,1.06-4.27,1.8-6.09,2.22-1.82,.43-3.78,.64-5.9,.64-2.4,0-4.52-.3-6.36-.91-1.84-.61-3.42-1.47-4.72-2.59-1.3-1.12-2.21-2.31-2.71-3.58-.5-1.26-.75-3.09-.75-5.49v-18.41h-5.8v-7.43c2.06-.67,3.83-1.63,5.3-2.88,1.47-1.25,2.65-2.75,3.54-4.51s1.5-3.98,1.84-6.69h7.46Z"/>
    </g>
    <g>
      <circle class="cls-1" cx="52.49" cy="43.16" r="12.55" transform="translate(-9.28 14.83) rotate(-14.79)"/>
      <path class="cls-1" d="M75.8,52.83c-1.11-12.46,.5-21.09,.5-21.09,.64-3.44,2.42-12.05,7.01-21.63,1.69-3.52,3.2-6.02,5.9-7.8,1.11-.73,6.04-3.99,10.2-1.2,3.29,2.21,4.37,7.06,3.62,10.58-.8,3.71-3.44,4.89-7.26,8.42-7.54,6.95-11.32,15.29-13.04,19.09-3.92,8.65-4.89,16.65-6.1,16.42-.56-.1-.73-1.87-.81-2.79Z"/>
      <path class="cls-1" d="M54.46,76.49c-8.83-8.86-16.44-13.21-16.44-13.21-3.04-1.74-10.74-5.95-20.97-8.67-3.75-1-6.62-1.48-9.68-.6-1.26,.36-6.86,1.96-7.35,6.89-.38,3.9,2.64,7.84,5.81,9.53,3.34,1.79,5.91,.57,11.02-.03,10.07-1.18,18.84,1.35,22.82,2.5,9.09,2.63,15.81,7.05,16.4,6,.27-.49-.97-1.75-1.62-2.4Z"/>
    </g>
  </g>
</svg>