<?xml version="1.0" encoding="UTF-8"?>
<svg id="Layer_2" data-name="Layer 2" xmlns="http://www.w3.org/2000/svg" viewBox="0 0 222.71 66.72">
  <defs>
    <style>
      .cls-1 {
        fill: #1a4f84;
      }

      .cls-2 {
        fill: #d5e491;
      }
    </style>
  </defs>
  <g id="Layer_1-2" data-name="Layer 1">
    <g>
      <g>
        <path class="cls-1" d="M65.45,33.98c0,18.08-14.66,32.74-32.72,32.74S0,52.07,0,33.98,14.65,1.27,32.73,1.27s32.72,14.65,32.72,32.71h0Z"/>
        <path class="cls-1" d="M222.71,32.74c0,18.05-14.65,32.7-32.71,32.7s-32.73-14.65-32.73-32.7S171.93,0,190,0s32.71,14.66,32.71,32.74h0Z"/>
        <path class="cls-1" d="M144.06,32.73c0,18.08-14.66,32.72-32.73,32.72s-32.72-14.65-32.72-32.72S93.26,0,111.33,0s32.73,14.66,32.73,32.73h0Z"/>
      </g>
      <g>
        <path class="cls-2" d="M48.63,42.74c0,4.03-3.25,7.31-7.24,7.31H24.06c-4,0-7.24-3.28-7.24-7.31V25.26c0-4.03,3.24-7.31,7.24-7.31h17.33c3.99,0,7.24,3.28,7.24,7.31v17.48h0Zm-7.24-28.25H24.06c-5.88,0-10.67,4.83-10.67,10.77v17.48c0,5.94,4.79,10.77,10.67,10.77h17.33c5.88,0,10.67-4.83,10.67-10.77V25.26c0-5.94-4.79-10.77-10.67-10.77h0Z"/>
        <path class="cls-2" d="M32.73,40.59c-3.6,0-6.54-2.96-6.54-6.59s2.93-6.59,6.54-6.59,6.53,2.96,6.53,6.59-2.93,6.59-6.53,6.59h0Zm0-16.65c-5.49,0-9.97,4.51-9.97,10.06s4.47,10.06,9.97,10.06,9.97-4.51,9.97-10.06-4.47-10.06-9.97-10.06h0Z"/>
        <path class="cls-2" d="M43.11,21.01c-.66,0-1.31,.27-1.78,.74-.47,.47-.74,1.13-.74,1.8s.27,1.32,.74,1.8c.47,.47,1.12,.74,1.78,.74s1.31-.28,1.78-.74c.47-.48,.74-1.13,.74-1.8s-.27-1.33-.74-1.8c-.47-.48-1.12-.74-1.78-.74h0Z"/>
        <path class="cls-2" d="M210.6,21.2c-1.53,.68-3.15,1.14-4.86,1.34,1.75-1.05,3.09-2.7,3.72-4.66-1.64,.95-3.45,1.65-5.36,2.03-1.54-1.63-3.75-2.66-6.18-2.66-4.66,0-8.44,3.78-8.44,8.45,0,.66,.07,1.3,.22,1.92-7.02-.36-13.27-3.71-17.44-8.84-.73,1.26-1.15,2.7-1.15,4.24,0,2.94,1.49,5.53,3.77,7.05-1.39-.05-2.69-.43-3.82-1.06v.1c0,4.1,2.89,7.53,6.76,8.3-.7,.18-1.44,.29-2.21,.29-.55,0-1.08-.06-1.61-.14,1.08,3.35,4.21,5.79,7.91,5.87-2.89,2.25-6.53,3.61-10.5,3.61-.68,0-1.35-.05-2.02-.12,3.74,2.39,8.2,3.8,12.96,3.8,15.56,0,24.07-12.89,24.07-24.06,0-.36-.01-.72-.02-1.07,1.65-1.19,3.08-2.69,4.22-4.4h0Z"/>
        <path class="cls-2" d="M105.55,54.12v-20.42h-5.41v-7.34h5.41v-6.28c0-4.93,3.19-9.46,10.53-9.46,2.99,0,5.18,.29,5.18,.29l-.16,6.87s-2.26-.03-4.7-.03c-2.66,0-3.08,1.24-3.08,3.26,0,1.59,0-3.42,0,5.37h7.97l-.33,7.34h-7.64v20.42h-7.77Z"/>
      </g>
    </g>
  </g>
</svg>