<?xml version="1.0" encoding="UTF-8"?>
<svg id="Layer_2" data-name="Layer 2" xmlns="http://www.w3.org/2000/svg" viewBox="0 0 65.44 65.45">
  <defs>
    <style>
      .cls-1 {
        fill: #1a4f84;
      }

      .cls-2 {
        fill: #d5e491;
      }
    </style>
  </defs>
  <g id="Layer_1-2" data-name="Layer 1">
    <g>
      <path class="cls-1" d="M65.44,32.74c0,18.05-14.65,32.7-32.71,32.7S0,50.8,0,32.74,14.66,0,32.73,0s32.71,14.66,32.71,32.74h0Z"/>
      <path class="cls-2" d="M53.33,21.2c-1.53,.68-3.15,1.14-4.86,1.34,1.75-1.05,3.09-2.7,3.72-4.66-1.64,.95-3.45,1.65-5.36,2.03-1.54-1.63-3.75-2.66-6.18-2.66-4.66,0-8.44,3.78-8.44,8.45,0,.66,.07,1.3,.22,1.92-7.02-.36-13.27-3.71-17.44-8.84-.73,1.26-1.15,2.7-1.15,4.24,0,2.94,1.49,5.53,3.77,7.05-1.39-.05-2.69-.43-3.82-1.06v.1c0,4.1,2.89,7.53,6.76,8.3-.7,.18-1.44,.29-2.21,.29-.55,0-1.08-.06-1.61-.14,1.08,3.35,4.21,5.79,7.91,5.87-2.89,2.25-6.53,3.61-10.5,3.61-.68,0-1.35-.05-2.02-.12,3.74,2.39,8.2,3.8,12.96,3.8,15.56,0,24.07-12.89,24.07-24.06,0-.36-.01-.72-.02-1.07,1.65-1.19,3.08-2.69,4.22-4.4h0Z"/>
    </g>
  </g>
</svg>